<svg xmlns="http://www.w3.org/2000/svg" xmlns:xlink="http://www.w3.org/1999/xlink" width="500" zoomAndPan="magnify" viewBox="0 0 375 374.999991" height="500" preserveAspectRatio="xMidYMid meet" version="1.0"><defs><clipPath id="cdf44adb65"><path d="M 106 37.5 L 268 37.5 L 268 199 L 106 199 Z M 106 37.5 " clip-rule="nonzero"/></clipPath><clipPath id="2aefd34eef"><path d="M 47.472656 207 L 327 207 L 327 375 L 47.472656 375 Z M 47.472656 207 " clip-rule="nonzero"/></clipPath></defs><rect x="-37.5" width="450" fill="#ffffff" y="-37.499999" height="449.999989" fill-opacity="1"/><rect x="-37.5" width="450" fill="#ea4a23" y="-37.499999" height="449.999989" fill-opacity="1"/><g clip-path="url(#cdf44adb65)"><path fill="#ffffff" d="M 267.546875 117.863281 C 267.546875 73.554688 231.492188 37.5 187.183594 37.5 C 142.875 37.5 106.820312 73.554688 106.820312 117.863281 C 106.820312 162.050781 142.875 198.105469 187.183594 198.105469 C 231.492188 198.105469 267.546875 162.050781 267.546875 117.863281 Z M 267.546875 117.863281 " fill-opacity="1" fill-rule="nonzero"/></g><g clip-path="url(#2aefd34eef)"><path fill="#ffffff" d="M 47.578125 347.058594 L 47.578125 371.335938 C 47.578125 394.765625 66.636719 413.824219 90.066406 413.824219 L 284.300781 413.824219 C 307.726562 413.824219 326.789062 394.765625 326.789062 371.335938 L 326.789062 347.058594 C 326.789062 270.09375 264.148438 207.453125 187.183594 207.453125 C 110.21875 207.453125 47.578125 270.09375 47.578125 347.058594 Z M 47.578125 347.058594 " fill-opacity="1" fill-rule="nonzero"/></g></svg>