<?xml version="1.0" encoding="utf-8"?>
<!-- Generator: Adobe Illustrator 26.3.1, SVG Export Plug-In . SVG Version: 6.00 Build 0)  -->
<svg version="1.1" id="Layer_1" xmlns="http://www.w3.org/2000/svg" xmlns:xlink="http://www.w3.org/1999/xlink" x="0px" y="0px"
	 viewBox="0 0 866.8 769.3" style="enable-background:new 0 0 866.8 769.3;" xml:space="preserve">
<style type="text/css">
	.st0{fill-rule:evenodd;clip-rule:evenodd;fill:#7268e4;}
</style>
<g>
	<path class="st0" d="M217.5,769.3H71.8c-30.6,0-45.8,0-55-5.9c-10-6.5-16.1-17.2-16.8-29c-0.6-10.9,7-24.2,22.1-50.7L382,49.4
		C397.4,22.5,405.1,9,414.9,4c10.5-5.3,23.1-5.3,33.6,0c9.8,5,17.5,18.4,32.8,45.4l74,129.1l0.4,0.7c16.5,28.9,24.9,43.6,28.6,58.9
		c4.1,16.8,4.1,34.5,0,51.3c-3.7,15.5-12,30.3-28.8,59.6l-189,334.2l-0.5,0.9c-16.6,29.1-25.1,43.9-36.8,55
		c-12.7,12.2-28,21-44.8,26C269,769.3,251.9,769.3,217.5,769.3z"/>
	<path class="st0" d="M585.6,769.3h208.8c30.8,0,46.3,0,55.5-6.1c10-6.5,16.2-17.3,16.8-29.2c0.5-10.5-6.9-23.3-21.4-48.3
		c-0.5-0.9-1-1.7-1.5-2.6l-104.6-179l-1.2-2c-14.7-24.9-22.1-37.4-31.7-42.3c-10.5-5.4-22.9-5.4-33.4,0c-9.6,5-17.3,18.1-32.7,44.5
		l-104.2,179l-0.4,0.6c-15.3,26.3-22.9,39.5-22.3,50.3c0.7,11.8,6.8,22.7,16.8,29.1C539.3,769.3,554.8,769.3,585.6,769.3z"/>
</g>
</svg>
