<?xml version="1.0" encoding="utf-8"?>
<!-- Generator: Adobe Illustrator 26.1.0, SVG Export Plug-In . SVG Version: 6.00 Build 0)  -->
<svg version="1.1" id="Layer_1" xmlns="http://www.w3.org/2000/svg" xmlns:xlink="http://www.w3.org/1999/xlink" x="0px" y="0px"
	 viewBox="0 0 388.5 488.8" style="enable-background:new 0 0 388.5 488.8;" xml:space="preserve">
<style type="text/css">
	.st0{display:none;fill:##6c76e2;}
	.st1{fill:##6c76e2;}
</style>
<circle class="st0" cx="201.5" cy="246.9" r="394"/>
<path id="symbol_1_" class="st1" d="M324.4,114.6c-19.8-44.9-65.3-54.5-121-45.2L185.5,0l-42.2,10.9l17.6,69.2
	c-11.1,2.8-22.5,5.2-33.8,8.4l-17.6-68.8L67.3,30.6L85.2,100C76.1,102.6,0,122.1,0,122.1l11.6,45.2c0,0,31-8.7,30.7-8
	c17.2-4.5,25.3,4.1,29.1,12.2l49.2,190.2c0.6,5.5-0.4,14.9-12.2,18.1c0.7,0.4-30.7,7.9-30.7,7.9l4.6,52.7c0,0,75.4-19.3,85.3-21.8
	l18.1,70.2l42.2-10.9l-18.1-70.7c11.6-2.7,22.9-5.5,33.9-8.4l18,70.3l42.2-10.9l-18.1-70.1c65-15.8,110.9-56.8,101.5-119.5
	c-6-37.8-47.3-68.8-81.6-72.3C326.8,177.6,337.5,150.3,324.4,114.6L324.4,114.6z M304.1,280.1c8.4,62.1-77.9,69.7-106.4,77.2
	l-24.8-92.9C201.5,256.9,289.9,225.4,304.1,280.1z M252.1,153.6c8.9,55.2-64.9,61.6-88.7,67.7L140.8,137
	C164.7,131.1,234,102.5,252.1,153.6z" fill="#6c76e2"/>
</svg>
