<svg width="500" height="500" viewBox="0 0 500 500" fill="none" xmlns="http://www.w3.org/2000/svg">
<path d="M153.016 209.781L249.062 113.734L345.156 209.828L401.047 153.938L249.062 1.95312L97.125 153.891L153.016 209.781ZM57.6562 193.344L113.547 249.219L57.6719 305.109L1.78125 249.234L57.6562 193.344ZM153.016 288.703L249.062 384.75L345.156 288.656L401.078 344.516L249.062 496.531L97.0469 344.516L153.016 288.703ZM496.359 249.25L440.484 305.141L384.594 249.266L440.484 193.375L496.359 249.25Z" fill="#6780e1"/>
<path d="M305.75 249.219H305.781L249.063 192.5L192.328 249.234L192.406 249.313L249.063 305.969L305.797 249.234L305.75 249.219Z" fill="#6780e1"/>
</svg>
