<?xml version="1.0" encoding="utf-8"?>
<!-- Generator: Adobe Illustrator 26.1.0, SVG Export Plug-In . SVG Version: 6.00 Build 0)  -->
<svg version="1.1"
	 id="Layer_1" shape-rendering="geometricPrecision" text-rendering="geometricPrecision" image-rendering="optimizeQuality" xmlns:xodm="http://www.corel.com/coreldraw/odm/2003"
	 xmlns="http://www.w3.org/2000/svg" xmlns:xlink="http://www.w3.org/1999/xlink" x="0px" y="0px" viewBox="0 0 284.8 377"
	 style="enable-background:new 0 0 284.8 377;" xml:space="preserve">
<style type="text/css">
	.st0{display:none;fill:#5e96dd;}
	.st1{fill:#5e96dd;}
</style>
<g id="_1421344023328">
	<path class="st0" d="M441.5,266C401.8,425.4,240.3,522.5,80.8,482.7C-78.6,443-175.7,281.4-135.9,122
		C-96.2-37.5,65.3-134.6,224.8-94.8C384.2-55,481.3,106.5,441.5,266L441.5,266L441.5,266z"/>
	<path class="st1" d="M284.1,151.6c5.9-39.6-24.2-60.9-65.5-75.1L232,22.8l-32.7-8.1l-13,52.2c-8.6-2.1-17.4-4.2-26.2-6.2l13.1-52.6
		L140.6,0l-13.4,53.6c-7.1-1.6-14.1-3.2-20.9-4.9l0-0.2l-45-11.2l-8.7,34.9c0,0,24.2,5.6,23.7,5.9c13.2,3.3,15.6,12.1,15.2,19
		l-15.2,61.1c0.9,0.2,2.1,0.6,3.4,1.1c-1.1-0.3-2.2-0.6-3.5-0.9l-21.4,85.6c-1.6,4-5.7,10-15,7.8c0.3,0.5-23.7-5.9-23.7-5.9L0,283.3
		l42.5,10.6c7.9,2,15.7,4.1,23.3,6l-13.5,54.3l32.6,8.1l13.4-53.7c8.9,2.4,17.6,4.7,26,6.8L111,368.9l32.7,8.1l13.5-54.2
		c55.7,10.5,97.6,6.3,115.2-44.1c14.2-40.6-0.7-64-30-79.2C263.7,194.6,279.8,180.6,284.1,151.6L284.1,151.6L284.1,151.6z
		 M209.4,256.2c-10.1,40.6-78.4,18.6-100.5,13.1l17.9-71.9C149,203,220,213.9,209.4,256.2L209.4,256.2z M219.5,151
		c-9.2,36.9-66.1,18.2-84.5,13.6l16.3-65.2C169.7,103.9,229.1,112.5,219.5,151L219.5,151z"/>
</g>
</svg>
