<?xml version="1.0" encoding="utf-8"?>
<!-- Generator: Adobe Illustrator 26.3.1, SVG Export Plug-In . SVG Version: 6.00 Build 0)  -->
<svg version="1.1" id="Layer_1" xmlns="http://www.w3.org/2000/svg" xmlns:xlink="http://www.w3.org/1999/xlink" x="0px" y="0px"
	 viewBox="0 0 39.4 54" style="enable-background:new 0 0 39.4 54;" xml:space="preserve">
<style type="text/css">
	.st0{fill:#6e70e4;}
</style>
<path class="st0" d="M19.5,30l-4.3,14.5h23c0.6,0,1.2,0.5,1.2,1.1c0,0,0,0,0,0V46l-2,6.9c-0.2,0.7-0.8,1.1-1.5,1.1H0.7l5.9-20.1
	l-6.6,2l1.5-4.6l6.6-2l8.3-28.2C16.6,0.4,17.2,0,17.9,0h8.9C27.4,0,28,0.5,28,1.1c0,0,0,0,0,0v0.4l-7,23.8l6.6-2l-1.4,4.8L19.5,30z"
	/>
</svg>
