<?xml version="1.0" standalone="yes"?>
<svg xmlns="http://www.w3.org/2000/svg" width="500" height="500">
<path style="fill:#010101; stroke:none;" d="M0 0L0 500L354 500L354 499C333.974 499 313.952 498.241 294 498.004C282.788 497.87 269.848 499.864 259 496.544C214.213 482.838 206.417 428.291 211.576 389C212.988 378.241 212 366.844 212 356C212 352.306 210.728 345.479 213.603 342.603C217.693 338.513 227.973 341.741 233 341.961C249.928 342.702 267.096 342.571 284 342.985C301.609 343.417 319.446 343.915 337 343.999C346.763 344.046 358.639 342.193 367.91 345.86C380.884 350.993 397.314 367.609 401.441 381C405.713 394.861 402.07 415.688 401.09 430C399.513 453.021 400 476.94 400 500L500 500L500 0L0 0z"/>
<path style="fill:#5e2c21; stroke:none;" d="M170 1L128 43C108.818 62.1819 91.2395 80.2297 90.1535 109C89.6447 122.481 89.991 142.332 102 151C85.8635 126.166 89.7299 91.5655 106.637 68C115.092 56.2162 127.753 46.2469 138 36L162 12C164.993 9.00583 170.094 5.46475 170 1z"/>
<path style="fill:#a14a37; stroke:none;" d="M171 2L148 25C134.564 38.4363 117.716 51.5582 106.637 67C87.9851 92.9974 82.7134 140.368 112 161C106.869 153.715 101.266 148.589 98.0787 140C83.0911 99.6107 106.741 68.2586 134 41L160 15C163.648 11.3517 169.763 7.10492 171 2z"/>
<path style="fill:#f89f8b; stroke:none;" d="M171 4.34567C167.175 5.29926 163.665 10.3349 161 13L137 37C108.302 65.6977 75.3223 107.775 102.133 150C112.371 166.123 129.567 179.567 143 193C155.994 205.994 168.846 219.153 182 231.985C185.019 234.931 192.302 243.827 197 242.654C201.157 241.616 205.095 235.905 208 233L234 207C246.824 194.176 263.97 181.308 273.752 166C283.939 150.058 283.31 119.789 273.034 104C261.922 86.927 242.399 72.3986 228 58L186 16C182.893 12.8929 176.043 3.08859 171 4.34567z"/>
<path style="fill:#5e2c21; stroke:none;" d="M173 3L174 4L173 3M174 4L175 5L174 4M175 5L176 6L175 5M176 6L177 7L176 6M177 7L178 8L177 7M178 8L179 9L178 8M179 9L180 10L179 9M180 10L181 11L180 10M181 11L182 12L181 11M182 12L183 13L182 12M183 13L184 14L183 13M184 14L185 15L184 14M185 15L186 16L185 15M186 16L187 17L186 16M187 17L188 18L187 17M188 18L189 19L188 18M189 19L190 20L189 19M190 20L191 21L190 20M191 21L192 22L191 21M192 22L193 23L192 22M193 23L194 24L193 23M194 24L195 25L194 24M195 25L196 26L195 25M196 26L197 27L196 26M197 27L198 28L197 27M198 28L199 29L198 28M199 29L200 30L199 29M200 30L201 31L200 30M201 31L202 32L201 31M202 32L203 33L202 32M203 33L204 34L203 33M204 34L205 35L204 34M205 35L206 36L205 35M206 36L207 37L206 36M207 37L208 38L207 37M208 38L209 39L208 38M209 39L210 40L209 39M210 40L211 41L210 40M211 41L212 42L211 41M212 42L213 43L212 42M213 43L214 44L213 43M214 44L215 45L214 44M215 45L216 46L215 45M216 46L217 47L216 46M217 47L218 48L217 47M218 48L219 49L218 48M219 49L220 50L219 49M220 50L221 51L220 50M221 51L222 52L221 51M222 52L223 53L222 52M223 53L224 54L223 53M224 54L225 55L224 54M225 55L226 56L225 55M226 56L227 57L226 56M227 57L228 58L227 57M228 58L229 59L228 58M229 59L230 60L229 59M230 60L231 61L230 60M231 61L232 62L231 61M232 62L233 63L232 62M233 63L234 64L233 63M234 64L235 65L234 64M235 65L236 66L235 65M236 66L237 67L236 66M237 67L238 68L237 67M238 68L239 69L238 68M239 69L240 70L239 69M240 70L241 71L240 70M241 71L242 72L241 71M242 72L243 73L242 72M243 73L244 74L243 73M244 74L245 75L244 74M245 75L246 76L245 75M246 76L247 77L246 76M247 77L248 78L247 77M248 78L249 79L248 78M249 79L250 80L249 79M250 80L251 81L250 80M251 81L252 82L251 81M252 82L253 83L252 82M253 83L254 84L253 83M254 84L255 85L254 84M255 85L256 86L255 85M256 86L257 87L256 86M257 87L258 88L257 87M258 88L259 89L258 88M259 89L260 90L259 89M260 90L261 91L260 90M261 91L262 92L261 91M262 92L263 93L262 92M263 93L264 94L263 93M264 94L265 95L264 94M265 95L266 96L265 95M266 96L267 97L266 96M267 97L268 98L267 97M268 98L269 99L268 98M269 99L270 100L269 99M270 100L271 101L270 100M271 101L272 102L271 101M272 102L273 103L272 102M273 103L274 104L273 103z"/>
<path style="fill:#a14a37; stroke:none;" d="M273 104L274 105L273 104M274 105C280.269 126.979 282.959 145.537 273 167C286.52 156.381 285.857 116.743 274 105z"/>
<path style="fill:#5e2c21; stroke:none;" d="M276 107L277 108L276 107M277 108C282.195 127.585 281.839 142.273 278 162C287.647 152.59 286.566 117.118 277 108M323 149C330.441 144.935 337.615 142.309 346 140.92C406.228 130.944 429.935 189.369 472 219C463.403 206.795 450.553 196.553 440 186C418.951 164.951 399.808 140.217 368 137.911C354.175 136.909 332.095 136.507 323 149z"/>
<path style="fill:#a14a37; stroke:none;" d="M317 155C323.538 150.916 329.436 146.546 336.999 144.373C379.742 132.091 408.684 157.684 437 186L461 210C463.322 212.324 468.802 216.159 467.793 220C465.431 228.994 448.547 240.453 442 247C419.07 269.93 389.655 292.517 371 319C381.004 311.953 389.353 301.647 398 293L447 244C452.998 238.002 459.061 232.061 464.995 226C466.976 223.978 470.461 221.238 469.654 218C468.786 214.516 464.421 211.422 462 209L442 189C414.64 161.64 389.119 133.822 347 140.59C335.672 142.41 324.058 145.194 317 155z"/>
<path style="fill:#e94d2b; stroke:none;" d="M356 140.67C313.493 144.294 286.145 184.855 258 213L236 235C233.778 237.227 229.207 240.497 229.207 244C229.207 247.17 232.993 249.977 235.001 252L254 271C278.327 295.327 302.313 330.465 341 326.83C367.494 324.341 379.924 310.076 398 292L440 250L462 228C464.222 225.773 468.793 222.503 468.793 219C468.793 215.83 465.007 213.023 462.999 211L445 193C420.662 168.662 394.308 137.404 356 140.67z"/>
<path style="fill:#5e2c21; stroke:none;" d="M314 156L315 157L314 156M313 157L314 158L313 157M312 158L313 159L312 158M311 159L312 160L311 159M310 160L311 161L310 160M309 161L310 162L309 161M277 162L278 163L277 162M308 162L309 163L308 162M307 163L308 164L307 163M306 164L307 165L306 164M305 165L306 166L305 165M274 166L275 167L274 166M304 166L305 167L304 166M273 167L274 168L273 167M303 167L304 168L303 167M272 168L273 169L272 168M302 168L303 169L302 168M271 169L272 170L271 169M301 169L302 170L301 169M270 170L271 171L270 170M300 170L301 171L300 170M269 171L270 172L269 171M299 171L300 172L299 171M268 172L269 173L268 172M298 172L299 173L298 172M267 173L268 174L267 173M297 173L298 174L297 173M266 174L267 175L266 174M296 174L297 175L296 174M265 175L266 176L265 175M295 175L296 176L295 175M264 176L265 177L264 176M294 176L295 177L294 176M263 177L264 178L263 177M293 177L294 178L293 177M262 178L263 179L262 178M292 178L293 179L292 178M261 179L262 180L261 179M291 179L292 180L291 179M260 180L261 181L260 180M290 180L291 181L290 180M259 181L260 182L259 181M289 181L290 182L289 181M258 182L259 183L258 182M288 182L289 183L288 182M257 183L258 184L257 183M287 183L288 184L287 183M256 184L257 185L256 184M286 184L287 185L286 184M255 185L256 186L255 185M285 185L286 186L285 185M254 186L255 187L254 186M284 186L285 187L284 186M253 187L254 188L253 187M283 187L284 188L283 187M252 188L253 189L252 188M282 188L283 189L282 188M251 189L252 190L251 189M281 189L282 190L281 189M250 190L251 191L250 190M280 190L281 191L280 190M249 191L250 192L249 191M279 191L280 192L279 191M248 192L249 193L248 192M278 192L279 193L278 192M247 193L248 194L247 193M277 193L278 194L277 193M246 194L247 195L246 194M276 194L277 195L276 194M245 195L246 196L245 195M275 195L276 196L275 195M244 196L245 197L244 196M274 196L275 197L274 196M243 197L244 198L243 197M273 197L274 198L273 197M242 198L243 199L242 198M272 198L273 199L272 198M241 199L242 200L241 199M271 199L272 200L271 199M240 200L241 201L240 200M270 200L271 201L270 200M239 201L240 202L239 201M269 201L270 202L269 201M238 202L239 203L238 202M268 202L269 203L268 202M237 203L238 204L237 203M267 203L268 204L267 203M236 204L237 205L236 204M266 204L267 205L266 204M235 205L236 206L235 205M265 205L266 206L265 205M234 206L235 207L234 206M264 206L265 207L264 206M233 207L234 208L233 207M263 207L264 208L263 207M232 208L233 209L232 208M262 208L263 209L262 208M231 209L232 210L231 209M261 209L262 210L261 209M230 210L231 211L230 210M260 210L261 211L260 210M229 211L230 212L229 211M259 211L260 212L259 211M228 212L229 213L228 212M258 212L259 213L258 212M227 213L228 214L227 213M257 213L258 214L257 213M226 214L227 215L226 214M256 214L257 215L256 214M225 215L226 216L225 215M255 215L256 216L255 215M224 216L225 217L224 216M254 216L255 217L254 216M223 217L224 218L223 217M253 217L254 218L253 217M222 218L223 219L222 218M252 218L253 219L252 218M221 219L222 220L221 219M251 219L252 220L251 219M220 220L221 221L220 220M250 220L251 221L250 220M219 221L220 222L219 221M249 221L250 222L249 221M218 222L219 223L218 222M248 222L249 223L248 222M217 223L218 224L217 223M247 223L248 224L247 223M216 224L217 225L216 224M246 224L247 225L246 224M215 225L216 226L215 225M245 225L246 226L245 225M214 226L215 227L214 226M244 226L245 227L244 226M213 227L214 228L213 227M243 227L244 228L243 227M212 228L213 229L212 228M242 228L243 229L242 228M211 229L212 230L211 229M241 229L242 230L241 229M210 230L211 231L210 230M240 230L241 231L240 230M209 231L210 232L209 231M239 231L240 232L239 231M208 232L209 233L208 232M238 232L239 233L238 232M207 233L208 234L207 233M237 233L238 234L237 233M206 234L207 235L206 234M236 234L237 235L236 234M205 235L206 236L205 235M235 235L236 236L235 235M204 236L205 237L204 236M234 236L235 237L234 236z"/>
<path style="fill:#a14a37; stroke:none;" d="M188 237L189 238L188 237z"/>
<path style="fill:#5e2c21; stroke:none;" d="M203 237L204 238L203 237M233 237L234 238L233 237z"/>
<path style="fill:#a14a37; stroke:none;" d="M189 238L190 239L189 238z"/>
<path style="fill:#5e2c21; stroke:none;" d="M202 238L203 239L202 238M232 238L233 239L232 238z"/>
<path style="fill:#a14a37; stroke:none;" d="M190 239L191 240L190 239z"/>
<path style="fill:#5e2c21; stroke:none;" d="M201 239L202 240L201 239M231 239L232 240L231 239z"/>
<path style="fill:#a14a37; stroke:none;" d="M191 240L192 241L191 240z"/>
<path style="fill:#5e2c21; stroke:none;" d="M200 240L201 241L200 240M230 240L231 241L230 240z"/>
<path style="fill:#a14a37; stroke:none;" d="M192 241L193 242L192 241z"/>
<path style="fill:#5e2c21; stroke:none;" d="M199 241L200 242L199 241M229 241L230 242L229 241z"/>
<path style="fill:#a14a37; stroke:none;" d="M193 242L194 243L193 242z"/>
<path style="fill:#5e2c21; stroke:none;" d="M198 242L199 243L198 242M228 242L229 243L228 242z"/>
<path style="fill:#a14a37; stroke:none;" d="M194 243L195 244L194 243z"/>
<path style="fill:#5e2c21; stroke:none;" d="M197 243L198 244L197 243M227.333 243.667L227.667 244.333L227.333 243.667z"/>
<path style="fill:#a14a37; stroke:none;" d="M195 244L196 245L195 244z"/>
<path style="fill:#5e2c21; stroke:none;" d="M196 244L197 245L196 244M28 300L29 300C30.3639 292.348 35.0295 285.28 39.4383 279C64.3649 243.493 103.46 246 142 246C155.118 246 170.21 243.955 183 247C180.281 243.888 174.89 245 171 245L139 245C102.603 245 66.634 241.304 41.0409 272.59C34.7303 280.305 28.0363 289.758 28 300M228 245L229 246L228 245z"/>
<path style="fill:#a14a37; stroke:none;" d="M28 309L29 309C29.0951 297.666 35.0639 287.858 41.5556 278.91C73.1496 235.363 135.03 247 182 247L182 389C185.707 380.165 183 365.585 183 356L183 280L183 256C182.999 253.383 183.75 248.891 181.397 247.028C178.615 244.825 172.328 246 169 246L138 246C122.959 246 105.791 243.702 91 246.468C61.2599 252.029 28.0219 275.955 28 309z"/>
<path style="fill:#5e2c21; stroke:none;" d="M229 246L230 247L229 246z"/>
<path style="fill:#e94d2b; stroke:none;" d="M28 436L101 436C111.263 436 125.171 438.451 135 435.441C154.487 429.473 174.684 411.692 180.817 392C185.127 378.162 182 359.447 182 345L182 247L121 247C106.279 247 91.3041 246.205 77.2855 251.405C55.9539 259.318 34.8963 278.053 29.5285 301C25.6146 317.732 28 336.919 28 354L28 436z"/>
<path style="fill:#5e2c21; stroke:none;" d="M230 247L231 248L230 247M231 248L232 249L231 248M232 249L233 250L232 249M233 250L234 251L233 250M234 251L235 252L234 251M235 252L236 253L235 252M236 253L237 254L236 253M237 254L238 255L237 254M238 255L239 256L238 255M239 256L240 257L239 256M240 257L241 258L240 257M241 258L242 259L241 258M242 259L243 260L242 259M243 260L244 261L243 260M244 261L245 262L244 261M245 262L246 263L245 262M246 263L247 264L246 263M247 264L248 265L247 264M248 265L249 266L248 265M249 266L250 267L249 266M250 267L251 268L250 267M251 268L252 269L251 268M252 269L253 270L252 269M253 270L254 271L253 270M254 271L255 272L254 271M255 272L256 273L255 272M256 273L257 274L256 273M257 274L258 275L257 274M258 275L259 276L258 275M259 276L260 277L259 276M260 277L261 278L260 277M261 278L262 279L261 278M262 279L263 280L262 279M263 280L264 281L263 280M264 281L265 282L264 281M265 282L266 283L265 282M266 283L267 284L266 283M267 284L268 285L267 284M268 285L269 286L268 285M269 286L270 287L269 286M270 287L271 288L270 287M271 288L272 289L271 288M272 289L273 290L272 289M273 290L274 291L273 290M274 291L275 292L274 291M275 292L276 293L275 292M276 293L277 294L276 293M277 294L278 295L277 294M278 295L279 296L278 295M279 296L280 297L279 296M280 297L281 298L280 297M281 298L282 299L281 298M282 299L283 300L282 299M283 300L284 301L283 300M284 301L285 302L284 301M285 302L286 303L285 302M286 303L287 304L286 303M287 304L288 305L287 304M288 305L289 306L288 305M289 306L290 307L289 306M290 307L291 308L290 307M291 308L292 309L291 308M292 309L293 310L292 309M293 310L294 311L293 310M294 311L295 312L294 311M295 312L296 313L295 312M296 313L297 314L296 313M297 314L298 315L297 314M298 315L299 316L298 315M299 316L300 317L299 316M300 317L301 318L300 317M301 318L302 319L301 318M302 319L304 321L302 319z"/>
<path style="fill:#a14a37; stroke:none;" d="M303 319L304 320L303 319z"/>
<path style="fill:#5e2c21; stroke:none;" d="M370 319L371 320L370 319z"/>
<path style="fill:#a14a37; stroke:none;" d="M304 320L304 321C321.473 326.282 353.956 336.456 369 320L337 326.896L304 320z"/>
<path style="fill:#5e2c21; stroke:none;" d="M369 320L370 321L369 320M305 321L306 322L305 321M368 321L369 322L368 321M306 322L306 323C324.376 331.922 348.544 333.654 367 324L341.001 328.127L306 322M367 322L368 323L367 322M261 497L261 496C251.686 491.569 242.845 486.12 235.301 478.999C209.821 454.948 211.566 421.853 212.961 390C213.659 374.063 213 357.953 213 342L229 342C225.67 340.603 215.611 339.342 213.028 342.603C210.825 345.385 212 351.672 212 355C212 365.223 212.799 375.821 211.83 386C208.523 420.757 208.566 456.886 235.921 482.35C242.688 488.649 251.551 495.769 261 497z"/>
<path style="fill:#a14a37; stroke:none;" d="M213 342C213 357.621 213.644 373.395 212.961 389C211.665 418.582 209.331 447.12 228.664 471.985C237.243 483.019 252.197 496.644 267 497L267 496C258.047 494.293 250.041 488.466 243.001 482.955C200.206 449.454 215 389.179 215 342L213 342z"/>
<path style="fill:#f89f8b; stroke:none;" d="M215 342C214.998 361.804 214.829 382.168 213.961 402C213.269 417.79 212.08 432.739 217.455 448C224.9 469.137 243.29 490.944 266 496.316C284.944 500.798 306.648 497.541 326 498.015C350.592 498.617 375.397 500 400 500C400 472.945 401 446.02 401 419C401 408.355 403.665 393.976 399.611 384C393.177 368.166 377.063 350.035 360 345.61C343.033 341.208 323.379 344.411 306 343.985C275.688 343.243 245.362 342 215 342z"/>
<path style="fill:#a14a37; stroke:none;" d="M249 342L249 343L265 343L249 342z"/>
<path style="fill:#5e2c21; stroke:none;" d="M265 342L265 343L279 343L265 342z"/>
<path style="fill:#a14a37; stroke:none;" d="M300 343L300 344L316 344L300 343z"/>
<path style="fill:#5e2c21; stroke:none;" d="M316 343L316 344L330 344L316 343z"/>
<path style="fill:#a14a37; stroke:none;" d="M351 344L351 345L359 345L351 344z"/>
<path style="fill:#5e2c21; stroke:none;" d="M359 344L359 345L363 345L359 344z"/>
<path style="fill:#a14a37; stroke:none;" d="M360 345L360 346C377.618 352.145 399.386 372.424 401 392C403.339 386.374 400.04 380.964 397.42 376C390.604 363.089 375.321 346.537 360 345z"/>
<path style="fill:#5e2c21; stroke:none;" d="M364 345L364 346C379.959 352.119 395.842 368.673 401 385C403.071 379.861 398.917 374.145 395.9 370.039C388.723 360.274 376.894 346.178 364 345M182 389C180.22 409.266 156.719 428.023 139 434.676C128.931 438.456 114.665 436 104 436L28 436L28 437L106 437C122.597 437 137.935 438.632 152.961 430.495C163.993 424.521 187.94 403.564 182 389z"/>
<path style="fill:#a14a37; stroke:none;" d="M181 390L172 409L173 409C176.631 403.93 183.358 396.649 181 390M401 393L401 411L402 411L401 393M170 409L167 416L168 416L172 409L170 409z"/>
<path style="fill:#5e2c21; stroke:none;" d="M401 411L401 427L402 427L401 411z"/>
<path style="fill:#a14a37; stroke:none;" d="M156 425L167 416L156 425M152 428L156 425L152 428M145 432L152 429C148.666 427.853 146.716 429.06 145 432M136 436L145 433C141.192 431.533 138.569 433.089 136 436M400 448L400 464L401 464L400 448z"/>
<path style="fill:#5e2c21; stroke:none;" d="M400 464L400 480L401 480L400 464M263 497L263 498L271 498L263 497z"/>
<path style="fill:#a14a37; stroke:none;" d="M271 497L271 498L281 498L271 497z"/>
<path style="fill:#5e2c21; stroke:none;" d="M300 498L300 499L315 499L300 498z"/>
<path style="fill:#a14a37; stroke:none;" d="M315 498L315 499L332 499L315 498z"/>
<path style="fill:#5e2c21; stroke:none;" d="M354 499L354 500L370 500L354 499z"/>
<path style="fill:#a14a37; stroke:none;" d="M370 499L370 500L387 500L370 499z"/>
</svg>
