<?xml version="1.0" standalone="yes"?>
<svg xmlns="http://www.w3.org/2000/svg" width="500" height="500">
<path style="fill:#010101; stroke:none;" d="M0 0L0 500L354 500L354 499C333.957 499 313.975 498.504 294 498.015C284.104 497.772 272.597 499.779 263 497.062C236.54 489.571 218.638 463.536 212.888 438C209.739 424.017 211.641 410.067 211.985 396C212.303 383.016 212 369.988 212 357C212 353.12 210.593 345.614 213.603 342.603C217.693 338.513 227.973 341.741 233 341.961C249.518 342.684 266.513 342.974 283 343C300.711 343.028 318.355 343.553 336 343.985C345.545 344.219 355.894 342.597 365 346.118C380.223 352.004 397.59 368.749 401.319 385C404.749 399.944 401.702 417.859 401.039 433C400.067 455.201 400 477.807 400 500L500 500L500 0L0 0z"/>
<path style="fill:#602a1e; stroke:none;" d="M170 2L162 11L170 2z"/>
<path style="fill:#b45d49; stroke:none;" d="M171 2L148 25C134.322 38.6783 117.214 52.0447 106.221 68C87.8038 94.7308 83.4913 141.214 113 162C107.712 154.423 101.582 148.915 98.3125 140C84.018 101.026 105.571 70.4285 132 44L161 15C164.372 11.6281 171.107 7.05438 171 2z"/>
<path style="fill:#602a1e; stroke:none;" d="M172 2C180.378 13.8934 194.107 27.6221 206 36C197.622 24.1066 183.893 10.3779 172 2z"/>
<path style="fill:#f59e8b; stroke:none;" d="M172 3C138.634 36.3662 87.6521 70.9707 94.5502 123.985C95.6395 132.358 97.357 141.689 101.838 148.985C113.228 167.532 133.34 182.616 148.65 197.88C159.747 208.944 170.99 219.877 181.95 231.075C185.126 234.32 191.058 242.795 196 242.793C200.635 242.791 206.013 234.987 209 232L240 201C251.51 189.49 270.061 176.572 275.9 161C282.244 144.078 282.097 119.928 272.787 104C268.333 96.3803 260.201 90.2005 254 84L218 48C203.32 33.32 188.966 14.9512 172 3z"/>
<path style="fill:#602a1e; stroke:none;" d="M158 14L159 15L158 14M157 15L158 16L157 15M156 16L157 17L156 16M155 17L156 18L155 17M154 18L155 19L154 18M153 19L154 20L153 19M152 20L153 21L152 20M151 21L152 22L151 21M150 22L151 23L150 22M149 23L150 24L149 23M148 24L149 25L148 24M147 25L148 26L147 25M146 26L147 27L146 26M145 27L146 28L145 27M144 28L145 29L144 28M143 29L144 30L143 29M142 30L143 31L142 30M141 31L142 32L141 31M140 32L141 33L140 32M139 33L140 34L139 33M138 34L139 35L138 34M137 35L138 36L137 35M136 36L137 37L136 36M135 37L136 38L135 37M207 37L208 38L207 37M134 38L135 39L134 38M208 38L209 39L208 38M133 39L134 40L133 39M209 39L210 40L209 39M132 40L133 41L132 40M210 40L211 41L210 40M131 41L132 42L131 41M211 41L212 42L211 41M130 42L131 43L130 42M212 42L213 43L212 42M129 43L130 44L129 43M213 43L214 44L213 43M128 44L129 45L128 44M214 44L215 45L214 44M127 45L128 46L127 45M215 45L216 46L215 45M126 46L127 47L126 46M216 46L217 47L216 46M125 47L126 48L125 47M217 47L218 48L217 47M124 48L125 49L124 48M218 48L219 49L218 48M123 49L124 50L123 49M219 49L220 50L219 49M122 50L123 51L122 50M220 50L221 51L220 50M121 51L122 52L121 51M221 51L222 52L221 51M120 52L121 53L120 52M222 52L223 53L222 52M119 53L120 54L119 53M223 53L224 54L223 53M118 54L119 55L118 54M224 54L225 55L224 54M117 55L118 56L117 55M225 55L226 56L225 55M116 56L117 57L116 56M226 56L227 57L226 56M115 57L116 58L115 57M227 57L228 58L227 57M114 58L115 59L114 58M228 58L229 59L228 58M113 59L114 60L113 59M229 59L230 60L229 59M112 60L113 61L112 60M230 60L231 61L230 60M111 61L112 62L111 61M231 61L232 62L231 61M110 62L111 63L110 62M232 62L233 63L232 62M109 63L110 64L109 63M233 63L234 64L233 63M108 64L109 65L108 64M234 64L235 65L234 64M107.333 65.6667L107.667 66.3333L107.333 65.6667M235 65L236 66L235 65M236 66L237 67L236 66M106 67L107 68L106 67M237 67L238 68L237 67M105 68L106 69L105 68M238 68L239 69L238 68M104 69L103 73L104 73L104 69M239 69L240 70L239 69M240 70L241 71L240 70M241 71L242 72L241 71M242 72L243 73L242 72M102 73L100 78L101 78L102 73M243 73L244 74L243 73M244 74L245 75L244 74M245 75L246 76L245 75M246 76L247 77L246 76M247 77L248 78L247 77M99.3333 78.6667L99.6667 79.3333L99.3333 78.6667M248 78L249 79L248 78M249 79L250 80L249 79M98.3333 80.6667L98.6667 81.3333L98.3333 80.6667M250 80L251 81L250 80M251 81L252 82L251 81M97 82L95 90L96 90L97 82M252 82L253 83L252 82M253 83L254 84L253 83M254 84L255 85L254 84M255 85L256 86L255 85M256 86L257 87L256 86M257 87L258 88L257 87M258 88L259 89L258 88M259 89L260 90L259 89M94 90L93 97L94 97L94 90M260 90L261 91L260 90M261 91L262 92L261 91M262 92L263 93L262 92M263 93L264 94L263 93M264 94L265 95L264 94M265 95L266 96L265 95M266 96L267 97L266 96M92 97L91 116L92 116L92 97M267 97L268 98L267 97M268 98L269 99L268 98M269 99L270 100L269 99M270 100L271 101L270 100M272 102L273 103L272 102M273 103L274 104L273 103z"/>
<path style="fill:#b45d49; stroke:none;" d="M273 104C279.808 127.642 280.668 143.521 273 167C286.18 155.999 285.967 115.117 273 104z"/>
<path style="fill:#602a1e; stroke:none;" d="M276 107L277 108L276 107M277.333 108.667L277.667 109.333L277.333 108.667M278.333 110.667L278.667 111.333L278.333 110.667M279 112L281.971 136L278 162L279 162C282.836 148.482 287.746 124.586 279 112M91 117L96 145L97 145L91 117M319 152C327.475 147.785 334.497 143.444 344 141.514C384.712 133.247 411.143 159.509 437.661 185.884C448.144 196.31 462.58 207.169 470 220C470.911 215.46 465.971 211.977 463 209L439 185C412.497 158.497 387.762 132.174 347 138.59C336.494 140.244 325.935 143.427 319 152z"/>
<path style="fill:#b45d49; stroke:none;" d="M352 140L352 141L367 141L352 140M315 324L315 323C301.249 318.11 292.291 307.431 282.285 297.17C271.755 286.371 260.815 275.972 250.285 265.17C245.958 260.73 231.123 250.559 231.203 243.985C231.245 240.515 235.597 237.467 237.83 235.285C244.31 228.954 250.589 222.403 257 216C270.769 202.248 284.896 188.818 298.424 174.834C312.9 159.87 327.045 143.793 349 142C343.265 139.662 334.434 143.415 329 145.75C310.982 153.492 295.666 175.334 282 189L244 227C239.941 231.059 230.773 237.274 229.346 243C227.811 249.157 243.985 260.985 248 265L288 305C296.134 313.134 303.188 321.756 315 324z"/>
<path style="fill:#e74d2b; stroke:none;" d="M349 141.439C325.666 145.083 312.781 159.7 296.715 175.715C283.528 188.859 270.198 201.861 257 215.001C250.56 221.413 244.374 228.127 237.83 234.424C235.292 236.866 230.655 240.044 230.635 243.985C230.618 247.505 234.98 250.72 237.17 253.039C243.592 259.841 250.355 266.41 257 272.996C284.387 300.142 307.167 332.867 350 325.715C369.02 322.538 378.884 310.116 392 297C408.748 280.252 426.027 263.91 442.424 246.83C448.532 240.468 454.77 234.243 461 228C463.264 225.731 467.721 222.539 467.808 219C467.898 215.329 463.427 211.999 461.05 209.754C454.561 203.624 448.409 197.166 441.996 190.961C415.296 165.124 390.453 134.965 349 141.439z"/>
<path style="fill:#b45d49; stroke:none;" d="M369 141L369 142L377 142L369 141M377.667 142.333L378.333 142.667L377.667 142.333M379 143L379 144L384 144L379 143M385 144L386 145L385 144z"/>
<path style="fill:#602a1e; stroke:none;" d="M97 145L98 146L97 145z"/>
<path style="fill:#b45d49; stroke:none;" d="M386 145L387 146L386 145z"/>
<path style="fill:#602a1e; stroke:none;" d="M98.3333 146.667L98.6667 147.333L98.3333 146.667z"/>
<path style="fill:#b45d49; stroke:none;" d="M387 146L387 147L390 147L387 146M390 147L390 148L394 148L390 147z"/>
<path style="fill:#602a1e; stroke:none;" d="M99 148L100 149L99 148z"/>
<path style="fill:#b45d49; stroke:none;" d="M394 148L395 149L394 148z"/>
<path style="fill:#602a1e; stroke:none;" d="M100 149L101 150L100 149z"/>
<path style="fill:#b45d49; stroke:none;" d="M396 149L397 150L396 149z"/>
<path style="fill:#602a1e; stroke:none;" d="M101 150L102 151L101 150z"/>
<path style="fill:#b45d49; stroke:none;" d="M397 150L398 151L397 150M398 151L399 152L398 151M399.667 152.333L400.333 152.667L399.667 152.333z"/>
<path style="fill:#602a1e; stroke:none;" d="M317 153L318 154L317 153z"/>
<path style="fill:#b45d49; stroke:none;" d="M401 153L401 154L407 156L407 155L401 153z"/>
<path style="fill:#602a1e; stroke:none;" d="M316 154L317 155L316 154M315 155L316 156L315 155M314 156L315 157L314 156z"/>
<path style="fill:#b45d49; stroke:none;" d="M407 156L408 157L407 156z"/>
<path style="fill:#602a1e; stroke:none;" d="M313 157L314 158L313 157z"/>
<path style="fill:#b45d49; stroke:none;" d="M408 157L409 158L408 157z"/>
<path style="fill:#602a1e; stroke:none;" d="M312 158L313 159L312 158z"/>
<path style="fill:#b45d49; stroke:none;" d="M409 158L410 159L409 158z"/>
<path style="fill:#602a1e; stroke:none;" d="M311 159L312 160L311 159z"/>
<path style="fill:#b45d49; stroke:none;" d="M410 159L411 160L410 159z"/>
<path style="fill:#602a1e; stroke:none;" d="M310 160L311 161L310 160z"/>
<path style="fill:#b45d49; stroke:none;" d="M411 160L412 161L411 160z"/>
<path style="fill:#602a1e; stroke:none;" d="M309 161L310 162L309 161z"/>
<path style="fill:#b45d49; stroke:none;" d="M412 161L414 163L414 161L412 161z"/>
<path style="fill:#602a1e; stroke:none;" d="M277 162L278 163L277 162M308 162L309 163L308 162M276 163L277 164L276 163M307 163L308 164L307 163z"/>
<path style="fill:#b45d49; stroke:none;" d="M414.667 163.333L415.333 163.667L414.667 163.333M115 164L116 165L115 164z"/>
<path style="fill:#602a1e; stroke:none;" d="M306 164L307 165L306 164z"/>
<path style="fill:#b45d49; stroke:none;" d="M416 164L416 166L418 166L416 164z"/>
<path style="fill:#602a1e; stroke:none;" d="M305 165L306 166L305 165M274 166L275 167L274 166M304 166L305 167L304 166z"/>
<path style="fill:#b45d49; stroke:none;" d="M418 166L420 169L418 166z"/>
<path style="fill:#602a1e; stroke:none;" d="M273 167L274 168L273 167M303 167L304 168L303 167M272 168L273 169L272 168M302 168L303 169L302 168z"/>
<path style="fill:#b45d49; stroke:none;" d="M120 169L121 170L120 169z"/>
<path style="fill:#602a1e; stroke:none;" d="M271 169L272 170L271 169M301 169L302 170L301 169z"/>
<path style="fill:#b45d49; stroke:none;" d="M420 169L427 176L420 169z"/>
<path style="fill:#602a1e; stroke:none;" d="M270 170L271 171L270 170M300 170L301 171L300 170M269 171L270 172L269 171M299 171L300 172L299 171z"/>
<path style="fill:#b45d49; stroke:none;" d="M123 172L124 173L123 172z"/>
<path style="fill:#602a1e; stroke:none;" d="M268 172L269 173L268 172M298 172L299 173L298 172M267 173L268 174L267 173M297 173L298 174L297 173M266 174L267 175L266 174M296 174L297 175L296 174M265 175L266 176L265 175M295 175L296 176L295 175M264 176L265 177L264 176M294 176L295 177L294 176z"/>
<path style="fill:#b45d49; stroke:none;" d="M427 176L428 177L427 176M128 177L129 178L128 177z"/>
<path style="fill:#602a1e; stroke:none;" d="M263 177L264 178L263 177M293 177L294 178L293 177z"/>
<path style="fill:#b45d49; stroke:none;" d="M428 177L430 179L430 177L428 177M129 178L130 179L129 178z"/>
<path style="fill:#602a1e; stroke:none;" d="M262 178L263 179L262 178M292 178L293 179L292 178M261 179L262 180L261 179M291 179L292 180L291 179z"/>
<path style="fill:#b45d49; stroke:none;" d="M431 179L432 180L431 179M131 180L132 181L131 180z"/>
<path style="fill:#602a1e; stroke:none;" d="M260 180L261 181L260 180M290 180L291 181L290 180z"/>
<path style="fill:#b45d49; stroke:none;" d="M432 180L432 182L434 182L432 180M132 181L133 182L132 181z"/>
<path style="fill:#602a1e; stroke:none;" d="M259 181L260 182L259 181M289 181L290 182L289 181M258 182L259 183L258 182M288 182L289 183L288 182z"/>
<path style="fill:#b45d49; stroke:none;" d="M434.333 182.667L434.667 183.333L434.333 182.667M134 183L135 184L134 183z"/>
<path style="fill:#602a1e; stroke:none;" d="M257 183L258 184L257 183M287 183L288 184L287 183z"/>
<path style="fill:#b45d49; stroke:none;" d="M135 184L136 185L135 184z"/>
<path style="fill:#602a1e; stroke:none;" d="M256 184L257 185L256 184M286 184L287 185L286 184z"/>
<path style="fill:#b45d49; stroke:none;" d="M435 184L438 187L435 184M136 185L137 186L136 185z"/>
<path style="fill:#602a1e; stroke:none;" d="M255 185L256 186L255 185M285 185L286 186L285 185M254 186L255 187L254 186M284 186L285 187L284 186M253 187L254 188L253 187M283 187L284 188L283 187z"/>
<path style="fill:#b45d49; stroke:none;" d="M438 187L443 192L438 187M139 188L140 189L139 188z"/>
<path style="fill:#602a1e; stroke:none;" d="M252 188L253 189L252 188M282 188L283 189L282 188M251 189L252 190L251 189M281 189L282 190L281 189M250 190L251 191L250 190M280 190L281 191L280 190z"/>
<path style="fill:#b45d49; stroke:none;" d="M142 191L143 192L142 191z"/>
<path style="fill:#602a1e; stroke:none;" d="M249 191L250 192L249 191M279 191L280 192L279 191z"/>
<path style="fill:#b45d49; stroke:none;" d="M143 192L144 193L143 192z"/>
<path style="fill:#602a1e; stroke:none;" d="M248 192L249 193L248 192M278 192L279 193L278 192z"/>
<path style="fill:#b45d49; stroke:none;" d="M443 192L444 193L443 192M144 193L145 194L144 193z"/>
<path style="fill:#602a1e; stroke:none;" d="M247 193L248 194L247 193M277 193L278 194L277 193z"/>
<path style="fill:#b45d49; stroke:none;" d="M444 193L446 195L446 193L444 193M145 194L146 195L145 194z"/>
<path style="fill:#602a1e; stroke:none;" d="M246 194L247 195L246 194M276 194L277 195L276 194M245 195L246 196L245 195M275 195L276 196L275 195z"/>
<path style="fill:#b45d49; stroke:none;" d="M447 195L448 196L447 195M147 196L148 197L147 196z"/>
<path style="fill:#602a1e; stroke:none;" d="M244 196L245 197L244 196M274 196L275 197L274 196z"/>
<path style="fill:#b45d49; stroke:none;" d="M448 196L448 198L450 198L448 196M148 197L149 198L148 197z"/>
<path style="fill:#602a1e; stroke:none;" d="M243 197L244 198L243 197M273 197L274 198L273 197M242 198L243 199L242 198M272 198L273 199L272 198z"/>
<path style="fill:#b45d49; stroke:none;" d="M450 198L452 201L450 198M150 199L151 200L150 199z"/>
<path style="fill:#602a1e; stroke:none;" d="M241 199L242 200L241 199M271 199L272 200L271 199z"/>
<path style="fill:#b45d49; stroke:none;" d="M151 200L152 201L151 200z"/>
<path style="fill:#602a1e; stroke:none;" d="M240 200L241 201L240 200M270 200L271 201L270 200z"/>
<path style="fill:#b45d49; stroke:none;" d="M152 201L153 202L152 201z"/>
<path style="fill:#602a1e; stroke:none;" d="M239 201L240 202L239 201M269 201L270 202L269 201z"/>
<path style="fill:#b45d49; stroke:none;" d="M452 201L454 203L454 201L452 201z"/>
<path style="fill:#602a1e; stroke:none;" d="M238 202L239 203L238 202M268 202L269 203L268 202z"/>
<path style="fill:#b45d49; stroke:none;" d="M154 203L155 204L154 203z"/>
<path style="fill:#602a1e; stroke:none;" d="M237 203L238 204L237 203M267 203L268 204L267 203z"/>
<path style="fill:#b45d49; stroke:none;" d="M454 203L456 205L456 203L454 203M155 204L156 205L155 204z"/>
<path style="fill:#602a1e; stroke:none;" d="M236 204L237 205L236 204M266 204L267 205L266 204z"/>
<path style="fill:#b45d49; stroke:none;" d="M156 205L157 206L156 205z"/>
<path style="fill:#602a1e; stroke:none;" d="M235 205L236 206L235 205M265 205L266 206L265 205z"/>
<path style="fill:#b45d49; stroke:none;" d="M456.667 205.333L457.333 205.667L456.667 205.333M157 206L158 207L157 206z"/>
<path style="fill:#602a1e; stroke:none;" d="M234 206L235 207L234 206M264 206L265 207L264 206z"/>
<path style="fill:#b45d49; stroke:none;" d="M458.333 206.667L458.667 207.333L458.333 206.667M158 207L159 208L158 207z"/>
<path style="fill:#602a1e; stroke:none;" d="M233 207L234 208L233 207M263 207L264 208L263 207z"/>
<path style="fill:#b45d49; stroke:none;" d="M159 208L160 209L159 208z"/>
<path style="fill:#602a1e; stroke:none;" d="M232 208L233 209L232 208M262 208L263 209L262 208z"/>
<path style="fill:#b45d49; stroke:none;" d="M459 208L462 211L459 208M160 209L161 210L160 209z"/>
<path style="fill:#602a1e; stroke:none;" d="M231 209L232 210L231 209M261 209L262 210L261 209z"/>
<path style="fill:#b45d49; stroke:none;" d="M161 210L162 211L161 210z"/>
<path style="fill:#602a1e; stroke:none;" d="M230 210L231 211L230 210M260 210L261 211L260 210M229 211L230 212L229 211M259 211L260 212L259 211z"/>
<path style="fill:#b45d49; stroke:none;" d="M463 211L464 212L463 211M163 212L164 213L163 212z"/>
<path style="fill:#602a1e; stroke:none;" d="M228 212L229 213L228 212M258 212L259 213L258 212z"/>
<path style="fill:#b45d49; stroke:none;" d="M464 212L465 213L464 212M164 213L165 214L164 213z"/>
<path style="fill:#602a1e; stroke:none;" d="M227 213L228 214L227 213M257 213L258 214L257 213z"/>
<path style="fill:#b45d49; stroke:none;" d="M465 213L468 217L465 213z"/>
<path style="fill:#602a1e; stroke:none;" d="M226 214L227 215L226 214M256 214L257 215L256 214z"/>
<path style="fill:#b45d49; stroke:none;" d="M166 215L167 216L166 215z"/>
<path style="fill:#602a1e; stroke:none;" d="M225 215L226 216L225 215M255 215L256 216L255 215z"/>
<path style="fill:#b45d49; stroke:none;" d="M167 216L168 217L167 216z"/>
<path style="fill:#602a1e; stroke:none;" d="M224 216L225 217L224 216M254 216L255 217L254 216z"/>
<path style="fill:#b45d49; stroke:none;" d="M168 217L169 218L168 217z"/>
<path style="fill:#602a1e; stroke:none;" d="M223 217L224 218L223 217M253 217L254 218L253 217z"/>
<path style="fill:#b45d49; stroke:none;" d="M468 217L469 218L468 217z"/>
<path style="fill:#602a1e; stroke:none;" d="M222 218L223 219L222 218M252 218L253 219L252 218z"/>
<path style="fill:#b45d49; stroke:none;" d="M469 218L442 248L443 248L462.999 227.996L469 218z"/>
<path style="fill:#602a1e; stroke:none;" d="M221 219L222 220L221 219M251 219L252 220L251 219z"/>
<path style="fill:#b45d49; stroke:none;" d="M171 220L172 221L171 220z"/>
<path style="fill:#602a1e; stroke:none;" d="M220 220L221 221L220 220M250 220L251 221L250 220z"/>
<path style="fill:#b45d49; stroke:none;" d="M172 221L173 222L172 221z"/>
<path style="fill:#602a1e; stroke:none;" d="M219 221L220 222L219 221M249 221L250 222L249 221z"/>
<path style="fill:#b45d49; stroke:none;" d="M173 222L174 223L173 222z"/>
<path style="fill:#602a1e; stroke:none;" d="M218 222L219 223L218 222M248 222L249 223L248 222z"/>
<path style="fill:#b45d49; stroke:none;" d="M174 223L175 224L174 223z"/>
<path style="fill:#602a1e; stroke:none;" d="M217 223L218 224L217 223M247 223L248 224L247 223z"/>
<path style="fill:#b45d49; stroke:none;" d="M175 224L176 225L175 224z"/>
<path style="fill:#602a1e; stroke:none;" d="M216 224L217 225L216 224M246 224L247 225L246 224z"/>
<path style="fill:#b45d49; stroke:none;" d="M176 225L177 226L176 225z"/>
<path style="fill:#602a1e; stroke:none;" d="M215 225L216 226L215 225M245 225L246 226L245 225z"/>
<path style="fill:#b45d49; stroke:none;" d="M177 226L178 227L177 226z"/>
<path style="fill:#602a1e; stroke:none;" d="M214 226L215 227L214 226M244 226L245 227L244 226M213 227L214 228L213 227M243 227L244 228L243 227z"/>
<path style="fill:#b45d49; stroke:none;" d="M179 228L180 229L179 228z"/>
<path style="fill:#602a1e; stroke:none;" d="M212 228L213 229L212 228M242 228L243 229L242 228z"/>
<path style="fill:#b45d49; stroke:none;" d="M180 229L181 230L180 229z"/>
<path style="fill:#602a1e; stroke:none;" d="M211 229L212 230L211 229M241 229L242 230L241 229z"/>
<path style="fill:#b45d49; stroke:none;" d="M181 230L182 231L181 230z"/>
<path style="fill:#602a1e; stroke:none;" d="M210 230L211 231L210 230M240 230L241 231L240 230z"/>
<path style="fill:#b45d49; stroke:none;" d="M182 231L183 232L182 231z"/>
<path style="fill:#602a1e; stroke:none;" d="M209 231L210 232L209 231M239 231L240 232L239 231z"/>
<path style="fill:#b45d49; stroke:none;" d="M183 232L184 233L183 232z"/>
<path style="fill:#602a1e; stroke:none;" d="M208 232L209 233L208 232M238 232L239 233L238 232z"/>
<path style="fill:#b45d49; stroke:none;" d="M184 233L185 234L184 233z"/>
<path style="fill:#602a1e; stroke:none;" d="M207 233L208 234L207 233M237 233L238 234L237 233M206 234L207 235L206 234M236 234L237 235L236 234M455 234L456 235L455 234M205 235L206 236L205 235M235 235L236 236L235 235M454 235L455 236L454 235z"/>
<path style="fill:#b45d49; stroke:none;" d="M187 236L188 237L187 236z"/>
<path style="fill:#602a1e; stroke:none;" d="M204 236L205 237L204 236M234 236L235 237L234 236z"/>
<path style="fill:#b45d49; stroke:none;" d="M188 237L189 238L188 237z"/>
<path style="fill:#602a1e; stroke:none;" d="M203 237L204 238L203 237M233 237L234 238L233 237z"/>
<path style="fill:#b45d49; stroke:none;" d="M189 238L190 239L189 238z"/>
<path style="fill:#602a1e; stroke:none;" d="M202 238L203 239L202 238M232 238L233 239L232 238z"/>
<path style="fill:#b45d49; stroke:none;" d="M190 239L191 240L190 239z"/>
<path style="fill:#602a1e; stroke:none;" d="M201 239L202 240L201 239M231 239L232 240L231 239z"/>
<path style="fill:#b45d49; stroke:none;" d="M191 240L192 241L191 240z"/>
<path style="fill:#602a1e; stroke:none;" d="M200 240L201 241L200 240M230 240L231 241L230 240z"/>
<path style="fill:#b45d49; stroke:none;" d="M192 241L193 242L192 241z"/>
<path style="fill:#602a1e; stroke:none;" d="M199 241L200 242L199 241M229 241L230 242L229 241z"/>
<path style="fill:#b45d49; stroke:none;" d="M193 242L194 243L193 242z"/>
<path style="fill:#602a1e; stroke:none;" d="M198 242L199 243L198 242M228 242L229 243L228 242M447 242L448 243L447 242z"/>
<path style="fill:#b45d49; stroke:none;" d="M194 243L195 244L194 243z"/>
<path style="fill:#602a1e; stroke:none;" d="M197 243L198 244L197 243M227.333 243.667L227.667 244.333L227.333 243.667M446 243L447 244L446 243z"/>
<path style="fill:#b45d49; stroke:none;" d="M195 244L196 245L195 244z"/>
<path style="fill:#602a1e; stroke:none;" d="M196 244L197 245L196 244M96 245L96 246L177 246L152 245L96 245M178 245L179 246L178 245M228 245L229 246L228 245M28 302L29 302C31.9617 273.054 67.3699 249.651 94 247C86.7553 243.967 76.6521 248.675 70 251.695C50.991 260.325 28.485 279.231 28 302z"/>
<path style="fill:#b45d49; stroke:none;" d="M82 249L82 250C87.5035 249.749 92.5307 247.492 98 247.09C116.464 245.736 135.484 247 154 247C161.593 247 175.389 244.271 181 250L182 250L183 247L151 246L82 249z"/>
<path style="fill:#602a1e; stroke:none;" d="M229 246L230 247L229 246M443 246L444 247L443 246z"/>
<path style="fill:#e74d2b; stroke:none;" d="M29 435L102 435C112.859 435 126.537 437.36 137 434.37C154.921 429.248 173.213 412.609 179.452 395C187.545 372.159 182 340.035 182 316L182 267C182 262.37 183.466 252.308 180.172 248.603C177.344 245.423 168.836 247 165 247L122 247C107.424 247 93.1393 246.572 79 250.637C57.803 256.73 37.3403 275.956 30.5949 297C26.1745 310.791 29 328.639 29 343L29 435z"/>
<path style="fill:#602a1e; stroke:none;" d="M230 247L231 248L230 247M182 248L182 384L183 384L183 289C183 277.318 186.507 258.742 182 248M231 248L232 249L231 248z"/>
<path style="fill:#b45d49; stroke:none;" d="M441 248L442 249L441 248z"/>
<path style="fill:#602a1e; stroke:none;" d="M232 249L233 250L232 249z"/>
<path style="fill:#b45d49; stroke:none;" d="M425 264L441 250C435.087 249.875 428.196 259.463 425 264M75 251L75 252L79 251L75 251z"/>
<path style="fill:#602a1e; stroke:none;" d="M233 250L234 251L233 250M439 250L440 251L439 250z"/>
<path style="fill:#b45d49; stroke:none;" d="M181 251L181 255L182 255L181 251z"/>
<path style="fill:#602a1e; stroke:none;" d="M234 251L235 252L234 251M438 251L439 252L438 251z"/>
<path style="fill:#b45d49; stroke:none;" d="M74 252L75 253L74 252z"/>
<path style="fill:#602a1e; stroke:none;" d="M235 252L236 253L235 252z"/>
<path style="fill:#b45d49; stroke:none;" d="M71.6667 253.333L72.3333 253.667L71.6667 253.333z"/>
<path style="fill:#602a1e; stroke:none;" d="M236 253L237 254L236 253z"/>
<path style="fill:#b45d49; stroke:none;" d="M65 256L65 257L70 254L65 256z"/>
<path style="fill:#602a1e; stroke:none;" d="M237 254L238 255L237 254M435 254L436 255L435 254M238 255L239 256L238 255M239 256L240 257L239 256z"/>
<path style="fill:#b45d49; stroke:none;" d="M59 259L59 260L65 258L59 259z"/>
<path style="fill:#602a1e; stroke:none;" d="M240 257L241 258L240 257M241 258L242 259L241 258M431 258L432 259L431 258M242 259L243 260L242 259M430 259L431 260L430 259z"/>
<path style="fill:#b45d49; stroke:none;" d="M58 260L59 261L58 260z"/>
<path style="fill:#602a1e; stroke:none;" d="M243 260L244 261L243 260z"/>
<path style="fill:#b45d49; stroke:none;" d="M57 261L58 262L57 261z"/>
<path style="fill:#602a1e; stroke:none;" d="M244 261L245 262L244 261z"/>
<path style="fill:#b45d49; stroke:none;" d="M52 266L57 262L52 266z"/>
<path style="fill:#602a1e; stroke:none;" d="M245 262L246 263L245 262M427 262L428 263L427 262M246 263L247 264L246 263M247 264L248 265L247 264M425 264L426 265L425 264M248 265L249 266L248 265z"/>
<path style="fill:#b45d49; stroke:none;" d="M376 313L425 266L411 277L376 313M50.6667 266.333L51.3333 266.667L50.6667 266.333z"/>
<path style="fill:#602a1e; stroke:none;" d="M249 266L250 267L249 266M423 266L424 267L423 266z"/>
<path style="fill:#b45d49; stroke:none;" d="M49 267L50 268L49 267z"/>
<path style="fill:#602a1e; stroke:none;" d="M250 267L251 268L250 267M422 267L423 268L422 267M251 268L252 269L251 268z"/>
<path style="fill:#b45d49; stroke:none;" d="M47 269L46 271L48 271L47 269z"/>
<path style="fill:#602a1e; stroke:none;" d="M252 269L253 270L252 269M253 270L254 271L253 270M419 270L420 271L419 270z"/>
<path style="fill:#b45d49; stroke:none;" d="M45.3333 271.667L45.6667 272.333L45.3333 271.667z"/>
<path style="fill:#602a1e; stroke:none;" d="M254 271L255 272L254 271M255 272L256 273L255 272z"/>
<path style="fill:#b45d49; stroke:none;" d="M44 273L45 274L44 273z"/>
<path style="fill:#602a1e; stroke:none;" d="M256 273L257 274L256 273z"/>
<path style="fill:#b45d49; stroke:none;" d="M43 274L42 276L44 276L43 274z"/>
<path style="fill:#602a1e; stroke:none;" d="M257 274L258 275L257 274M258 275L259 276L258 275M414 275L415 276L414 275M259 276L260 277L259 276M260 277L261 278L260 277z"/>
<path style="fill:#b45d49; stroke:none;" d="M40 278L41 279L40 278z"/>
<path style="fill:#602a1e; stroke:none;" d="M261 278L262 279L261 278M411 278L412 279L411 278z"/>
<path style="fill:#b45d49; stroke:none;" d="M39.3333 279.667L39.6667 280.333L39.3333 279.667z"/>
<path style="fill:#602a1e; stroke:none;" d="M262 279L263 280L262 279M263 280L264 281L263 280z"/>
<path style="fill:#b45d49; stroke:none;" d="M38 281L39 282L38 281z"/>
<path style="fill:#602a1e; stroke:none;" d="M264 281L265 282L264 281z"/>
<path style="fill:#b45d49; stroke:none;" d="M37 282L38 283L37 282z"/>
<path style="fill:#602a1e; stroke:none;" d="M265 282L266 283L265 282M266 283L267 284L266 283M406 283L407 284L406 283z"/>
<path style="fill:#b45d49; stroke:none;" d="M36 284L37 285L36 284z"/>
<path style="fill:#602a1e; stroke:none;" d="M267 284L268 285L267 284M268 285L269 286L268 285z"/>
<path style="fill:#b45d49; stroke:none;" d="M35 286L36 287L35 286z"/>
<path style="fill:#602a1e; stroke:none;" d="M269 286L270 287L269 286M403 286L404 287L403 286z"/>
<path style="fill:#b45d49; stroke:none;" d="M34 287L33 290L34 287z"/>
<path style="fill:#602a1e; stroke:none;" d="M270 287L271 288L270 287M402 287L403 288L402 287M271 288L272 289L271 288M401 288L402 289L401 288M272 289L273 290L272 289z"/>
<path style="fill:#b45d49; stroke:none;" d="M32 290L32 293L33 293L32 290z"/>
<path style="fill:#602a1e; stroke:none;" d="M273 290L274 291L273 290M399 290L400 291L399 290M274 291L275 292L274 291M398 291L399 292L398 291M275 292L276 293L275 292z"/>
<path style="fill:#b45d49; stroke:none;" d="M31.3333 293.667L31.6667 294.333L31.3333 293.667z"/>
<path style="fill:#602a1e; stroke:none;" d="M276 293L277 294L276 293M277 294L278 295L277 294M395 294L396 295L395 294z"/>
<path style="fill:#b45d49; stroke:none;" d="M30.3333 295.667L30.6667 296.333L30.3333 295.667z"/>
<path style="fill:#602a1e; stroke:none;" d="M278 295L279 296L278 295M394 295L395 296L394 295M279 296L280 297L279 296M393 296L394 297L393 296z"/>
<path style="fill:#b45d49; stroke:none;" d="M29 297L29 302L30 302L29 297z"/>
<path style="fill:#602a1e; stroke:none;" d="M280 297L281 298L280 297M281 298L282 299L281 298M391 298L392 299L391 298M282 299L283 300L282 299M390 299L391 300L390 299M283 300L284 301L283 300M284 301L285 302L284 301z"/>
<path style="fill:#b45d49; stroke:none;" d="M28 302L28 436L129 436L129 435L29 435L29 342C29 330.58 32.4076 312.504 28 302z"/>
<path style="fill:#602a1e; stroke:none;" d="M285 302L286 303L285 302M387 302L388 303L387 302M286 303L287 304L286 303M386 303L387 304L386 303M287 304L288 305L287 304M385 304L386 305L385 304M288 305L289 306L288 305M27 306L28 307L27 306M289 306L290 307L289 306M383 306L384 307L383 306M290 307L291 308L290 307M382 307L383 308L382 307M291 308L292 309L291 308M292 309L293 310L292 309M380 309L381 310L380 309M27 310L28 311L27 310M293 310L294 311L293 310M379 310L380 311L379 310M294 311L295 312L294 311M378 311L379 312L378 311M295 312L296 313L295 312M377 312L378 313L377 312M296 313L297 314L296 313M376 313L377 314L376 313M27 314L28 315L27 314M297 314L298 315L297 314z"/>
<path style="fill:#b45d49; stroke:none;" d="M374 314C367.075 320.608 360.444 323.8 351 325L351 326C358.796 325.664 371.856 322.834 374 314z"/>
<path style="fill:#602a1e; stroke:none;" d="M375 314L376 315L375 314M298 315L299 316L298 315M374 315L375 316L374 315M299 316L300 317L299 316M373 316L374 317L373 316M300 317L301 318L300 317M372 317L373 318L372 317M301 318L302 319L301 318M371 318L372 319L371 318M27 319L28 320L27 319M302 319L303 320L302 319M370 319L371 320L370 319M303 320L304 321L303 320M369 320L370 321L369 320M304 321L304 322C323.756 331.682 348.147 333.834 368 323L338 327.871L304 321M368 321L369 322L368 321z"/>
<path style="fill:#b45d49; stroke:none;" d="M317.667 324.333L318.333 324.667L317.667 324.333M319 325L319 326L322 326L319 325M325 326L325 327L332 327L325 326M344 326L344 327L350 327L344 326M333 327L333 328L342 328L333 327z"/>
<path style="fill:#602a1e; stroke:none;" d="M211 428L212 428L214 342L229 342C225.56 340.556 214.637 339.185 212.603 343.318C209.551 349.522 212 362.127 212 369C212 388.724 211 408.285 211 428z"/>
<path style="fill:#b45d49; stroke:none;" d="M214 342C213.215 360.29 213.763 378.688 212.961 397C211.814 423.177 210.847 447.737 227.378 470C237.133 483.137 252.813 496.953 270 497L270 496C260.982 495.513 251.855 489.478 244.83 484.135C209.079 456.941 214 415.835 214 376C214 365.793 218.025 351.593 214 342z"/>
<path style="fill:#f59e8b; stroke:none;" d="M215 342C215 394.418 198.624 473.636 264 495.327C284.06 501.983 308.235 496.668 329 498.09C346.302 499.274 363.63 498.972 381 499C385.424 499.007 394.717 501.884 398.397 498.972C401.716 496.345 400 486.785 400 483C400 466.969 401 450.968 401 435C401 420.054 405.076 397.952 399.367 384C392.828 368.025 376.274 350.069 359 345.61C341.744 341.155 321.675 344.418 304 343.985C274.358 343.259 244.689 342 215 342z"/>
<path style="fill:#b45d49; stroke:none;" d="M247 342L247 343L264 343L247 342z"/>
<path style="fill:#602a1e; stroke:none;" d="M264 342L264 343L275 343L264 342z"/>
<path style="fill:#b45d49; stroke:none;" d="M298 343L298 344L312 344L298 343z"/>
<path style="fill:#602a1e; stroke:none;" d="M312 343L312 344L331 344L312 343z"/>
<path style="fill:#b45d49; stroke:none;" d="M349 344L349 345L358 345L349 344z"/>
<path style="fill:#602a1e; stroke:none;" d="M358.667 344.333L359.333 344.667L358.667 344.333z"/>
<path style="fill:#b45d49; stroke:none;" d="M359 345L359 346C376.294 352.032 394.812 369.121 400.058 387C402.152 394.139 401 402.629 401 410C411.403 385.208 384.404 347.218 359 345z"/>
<path style="fill:#602a1e; stroke:none;" d="M363 345L364 346L363 345M366 346L367 347L366 346M369 348L370 349L369 348M371 349L372 350L371 349M372.667 350.333L373.333 350.667L372.667 350.333M374 351L375 352L374 351M375.667 352.333L376.333 352.667L375.667 352.333M377 353L378 354L377 353M378 354L379 355L378 354M379 355L382 357L379 355M382 357L383 358L382 357M383 358L384 359L383 358M385 360L386 361L385 360M386 361L387 362L386 361M387 362L388 363L387 362M388 363L389 364L388 363M389 364L390 365L389 364M390.333 365.667L390.667 366.333L390.333 365.667M391 367L392 368L391 367M392 368L393 369L392 368M393 369L394 370L393 369M394.333 370.667L394.667 371.333L394.333 370.667M395 372L396 373L395 372M396.333 373.667L396.667 374.333L396.333 373.667M397.333 375.667L397.667 376.333L397.333 375.667M398.333 377.667L398.667 378.333L398.333 377.667M399 379L400 380L399 379M400 381L401 382L400 381z"/>
<path style="fill:#b45d49; stroke:none;" d="M182 384L183 385L182 384z"/>
<path style="fill:#602a1e; stroke:none;" d="M182 385C181.848 402.034 166.384 418.046 153 426.988C148.451 430.027 141.112 431.536 138 436C154.236 432.152 168.594 418.865 177.186 405C180.732 399.277 184.836 391.774 182 385M401.333 385.667L401.667 386.333L401.333 385.667z"/>
<path style="fill:#b45d49; stroke:none;" d="M181 386L180 395L181 395L181 386M179 395L177 401L178 401L179 395M176.333 401.667L176.667 402.333L176.333 401.667M175 403L173 407L175 403M172.333 407.667L172.667 408.333L172.333 407.667M171 409L172 410L171 409M170 410L171 411L170 410z"/>
<path style="fill:#602a1e; stroke:none;" d="M401 410L401 429L402 429L401 410z"/>
<path style="fill:#b45d49; stroke:none;" d="M169 411L170 412L169 411M168.333 412.667L168.667 413.333L168.333 412.667M167 414L166 416L168 416L167 414M165 416L166 417L165 416M164 417L165 418L164 417M163 418L164 419L163 418M162 419L163 420L162 419M160.667 420.333L161.333 420.667L160.667 420.333M159 421L160 422L159 421M154 426L159 422L154 426z"/>
<path style="fill:#602a1e; stroke:none;" d="M27.3333 423.667L27.6667 424.333L27.3333 423.667z"/>
<path style="fill:#b45d49; stroke:none;" d="M153 426L154 427L153 426M152 427L153 428L152 427M149 428L149 429L152 429L149 428z"/>
<path style="fill:#602a1e; stroke:none;" d="M27 429L28 430L27 429z"/>
<path style="fill:#b45d49; stroke:none;" d="M147 429L148 430L147 429M146 430L147 431L146 430M144.667 431.333L145.333 431.667L144.667 431.333M141 432L141 433L144 433L141 432z"/>
<path style="fill:#602a1e; stroke:none;" d="M27 433L28 434L27 433z"/>
<path style="fill:#b45d49; stroke:none;" d="M139 433L140 434L139 433M137 434L130 435L130 436L137 434z"/>
<path style="fill:#602a1e; stroke:none;" d="M212 434L212 437L213 437L212 434M29 436L29 437L136 437L103 436L29 436M213 438L213 441L214 441L213 438M214 441L214 445L215 445L214 441M215 446L215 449L216 449L215 446z"/>
<path style="fill:#b45d49; stroke:none;" d="M400 446L400 463L401 463L400 446z"/>
<path style="fill:#602a1e; stroke:none;" d="M216 450L217 451L216 450M217 451L218 456L219 456L217 451M219 456L219 459L220 459L219 456M220 459L222 462L220 459M222.333 462.667L222.667 463.333L222.333 462.667M400 463L400 481L401 481L400 463M223.333 464.667L223.667 465.333L223.333 464.667M224 466L225 467L224 466M225 467L227 470L225 467M227 470L228 471L227 470M228 471L230 474L228 471M230 474L231 475L230 474M231 475L232 476L231 475M232 476L233 477L232 476M233 477L235 480L233 477M235 480L236 481L235 480M237 481L238 482L237 481M238 482L239 483L238 482M239 483L240 484L239 483M240 484L243 486L240 484M243 486L244 487L243 486M244 487L247 489L244 487M247.667 489.333L248.333 489.667L247.667 489.333M249 490L250 491L249 490M250.667 491.333L251.333 491.667L250.667 491.333M252 492L253 493L252 492M254.667 493.333L255.333 493.667L254.667 493.333M257 494L258 495L257 494M258 495L259 496L258 495M260.667 496.333L261.333 496.667L260.667 496.333M264 497L264 498L272 498L264 497z"/>
<path style="fill:#b45d49; stroke:none;" d="M272 497L272 498L283 498L272 497z"/>
<path style="fill:#602a1e; stroke:none;" d="M299 498L299 499L317 499L299 498z"/>
<path style="fill:#b45d49; stroke:none;" d="M317 498L317 499L333 499L317 498z"/>
<path style="fill:#602a1e; stroke:none;" d="M354 499L355 500L354 499z"/>
<path style="fill:#010101; stroke:none;" d="M355 499L356 500L355 499z"/>
<path style="fill:#602a1e; stroke:none;" d="M356 499L356 500L370 500L356 499z"/>
<path style="fill:#b45d49; stroke:none;" d="M370 499L370 500L390 500L370 499M399 499L400 500L399 499z"/>
</svg>
